<mxfile host="app.diagrams.net" agent="Mozilla/5.0 (Windows NT 10.0; Win64; x64) AppleWebKit/537.36 (KHTML, like Gecko) Chrome/130.0.0.0 Safari/537.36" version="24.8.6">
  <diagram name="Page-1" id="_zmQE4aTHqSFFps4NpdO">
    <mxGraphModel dx="1434" dy="866" grid="1" gridSize="10" guides="1" tooltips="1" connect="1" arrows="1" fold="1" page="1" pageScale="1" pageWidth="827" pageHeight="1169" math="0" shadow="0">
      <root>
        <mxCell id="0" />
        <mxCell id="1" parent="0" />
        <mxCell id="vIZXdiSz9gOYUMvFdaI3-1" value="" style="rounded=1;whiteSpace=wrap;html=1;" vertex="1" parent="1">
          <mxGeometry x="60" y="350" width="700" height="340" as="geometry" />
        </mxCell>
        <mxCell id="vIZXdiSz9gOYUMvFdaI3-12" style="edgeStyle=orthogonalEdgeStyle;rounded=0;orthogonalLoop=1;jettySize=auto;html=1;" edge="1" parent="1" source="vIZXdiSz9gOYUMvFdaI3-3">
          <mxGeometry relative="1" as="geometry">
            <mxPoint x="280" y="110" as="targetPoint" />
          </mxGeometry>
        </mxCell>
        <mxCell id="vIZXdiSz9gOYUMvFdaI3-3" value="excel" style="shape=cylinder3;whiteSpace=wrap;html=1;boundedLbl=1;backgroundOutline=1;size=15;" vertex="1" parent="1">
          <mxGeometry x="90" y="70" width="60" height="80" as="geometry" />
        </mxCell>
        <mxCell id="vIZXdiSz9gOYUMvFdaI3-13" style="edgeStyle=orthogonalEdgeStyle;rounded=0;orthogonalLoop=1;jettySize=auto;html=1;entryX=0;entryY=0.5;entryDx=0;entryDy=0;" edge="1" parent="1" source="vIZXdiSz9gOYUMvFdaI3-4" target="vIZXdiSz9gOYUMvFdaI3-5">
          <mxGeometry relative="1" as="geometry" />
        </mxCell>
        <mxCell id="vIZXdiSz9gOYUMvFdaI3-15" style="edgeStyle=orthogonalEdgeStyle;rounded=0;orthogonalLoop=1;jettySize=auto;html=1;exitX=1;exitY=0.5;exitDx=0;exitDy=0;exitPerimeter=0;entryX=0;entryY=0.5;entryDx=0;entryDy=0;" edge="1" parent="1" source="vIZXdiSz9gOYUMvFdaI3-4" target="vIZXdiSz9gOYUMvFdaI3-6">
          <mxGeometry relative="1" as="geometry" />
        </mxCell>
        <mxCell id="vIZXdiSz9gOYUMvFdaI3-16" value="wf2" style="edgeLabel;html=1;align=center;verticalAlign=middle;resizable=0;points=[];" vertex="1" connectable="0" parent="vIZXdiSz9gOYUMvFdaI3-15">
          <mxGeometry x="0.3765" y="-4" relative="1" as="geometry">
            <mxPoint x="-3" y="6" as="offset" />
          </mxGeometry>
        </mxCell>
        <mxCell id="vIZXdiSz9gOYUMvFdaI3-4" value="liste sp&lt;div&gt;usecases&lt;/div&gt;" style="shape=cylinder3;whiteSpace=wrap;html=1;boundedLbl=1;backgroundOutline=1;size=15;" vertex="1" parent="1">
          <mxGeometry x="290" y="60" width="60" height="80" as="geometry" />
        </mxCell>
        <mxCell id="vIZXdiSz9gOYUMvFdaI3-5" value="usecases mail simple:&lt;div&gt;choix mail 1 : corps 1&lt;/div&gt;&lt;div&gt;choix mail 2 : corps 2&lt;/div&gt;" style="rounded=1;whiteSpace=wrap;html=1;align=left;" vertex="1" parent="1">
          <mxGeometry x="470" y="40" width="151" height="60" as="geometry" />
        </mxCell>
        <mxCell id="vIZXdiSz9gOYUMvFdaI3-6" value="usecases invite:&lt;div&gt;choix mail 1 : corps 1&lt;/div&gt;&lt;div&gt;choix mail 2 : corps 2&lt;/div&gt;" style="rounded=1;whiteSpace=wrap;html=1;align=left;" vertex="1" parent="1">
          <mxGeometry x="470" y="120" width="151" height="60" as="geometry" />
        </mxCell>
        <mxCell id="vIZXdiSz9gOYUMvFdaI3-7" value="choix mail simple / invite" style="rounded=0;whiteSpace=wrap;html=1;align=left;" vertex="1" parent="1">
          <mxGeometry x="130" y="390" width="190" height="20" as="geometry" />
        </mxCell>
        <mxCell id="vIZXdiSz9gOYUMvFdaI3-8" value="" style="rounded=0;whiteSpace=wrap;html=1;" vertex="1" parent="1">
          <mxGeometry x="300" y="390" width="20" height="20" as="geometry" />
        </mxCell>
        <mxCell id="vIZXdiSz9gOYUMvFdaI3-9" value="choix usecase" style="rounded=0;whiteSpace=wrap;html=1;align=left;" vertex="1" parent="1">
          <mxGeometry x="130" y="430" width="190" height="20" as="geometry" />
        </mxCell>
        <mxCell id="vIZXdiSz9gOYUMvFdaI3-10" value="" style="rounded=0;whiteSpace=wrap;html=1;" vertex="1" parent="1">
          <mxGeometry x="300" y="430" width="20" height="20" as="geometry" />
        </mxCell>
        <mxCell id="vIZXdiSz9gOYUMvFdaI3-11" value="preview mail" style="rounded=0;whiteSpace=wrap;html=1;" vertex="1" parent="1">
          <mxGeometry x="380" y="430" width="330" height="240" as="geometry" />
        </mxCell>
        <mxCell id="vIZXdiSz9gOYUMvFdaI3-14" value="wf1" style="text;html=1;align=center;verticalAlign=middle;resizable=0;points=[];autosize=1;strokeColor=none;fillColor=none;" vertex="1" parent="1">
          <mxGeometry x="390" y="48" width="40" height="30" as="geometry" />
        </mxCell>
        <mxCell id="vIZXdiSz9gOYUMvFdaI3-21" value="send" style="rounded=1;whiteSpace=wrap;html=1;" vertex="1" parent="1">
          <mxGeometry x="175" y="640" width="120" height="30" as="geometry" />
        </mxCell>
        <mxCell id="vIZXdiSz9gOYUMvFdaI3-22" value="liste mails users" style="rounded=0;whiteSpace=wrap;html=1;align=left;" vertex="1" parent="1">
          <mxGeometry x="130" y="470" width="190" height="100" as="geometry" />
        </mxCell>
        <mxCell id="vIZXdiSz9gOYUMvFdaI3-25" value="" style="endArrow=none;html=1;rounded=0;" edge="1" parent="1">
          <mxGeometry width="50" height="50" relative="1" as="geometry">
            <mxPoint x="60" y="180" as="sourcePoint" />
            <mxPoint x="170" y="50" as="targetPoint" />
          </mxGeometry>
        </mxCell>
        <mxCell id="vIZXdiSz9gOYUMvFdaI3-26" value="" style="endArrow=none;html=1;rounded=0;" edge="1" parent="1">
          <mxGeometry width="50" height="50" relative="1" as="geometry">
            <mxPoint x="50" y="50" as="sourcePoint" />
            <mxPoint x="198.05555555555566" y="180" as="targetPoint" />
          </mxGeometry>
        </mxCell>
        <mxCell id="vIZXdiSz9gOYUMvFdaI3-27" value="date de migration" style="rounded=0;whiteSpace=wrap;html=1;align=left;" vertex="1" parent="1">
          <mxGeometry x="130" y="590" width="110" height="20" as="geometry" />
        </mxCell>
        <mxCell id="vIZXdiSz9gOYUMvFdaI3-28" value="liste sp&lt;div&gt;enclosed&lt;/div&gt;" style="shape=cylinder3;whiteSpace=wrap;html=1;boundedLbl=1;backgroundOutline=1;size=15;" vertex="1" parent="1">
          <mxGeometry x="290" y="165" width="60" height="80" as="geometry" />
        </mxCell>
        <mxCell id="vIZXdiSz9gOYUMvFdaI3-29" value="prenom" style="rounded=0;whiteSpace=wrap;html=1;" vertex="1" parent="1">
          <mxGeometry x="410" y="570" width="120" height="20" as="geometry" />
        </mxCell>
        <mxCell id="vIZXdiSz9gOYUMvFdaI3-30" value="date" style="rounded=0;whiteSpace=wrap;html=1;" vertex="1" parent="1">
          <mxGeometry x="410" y="600" width="120" height="20" as="geometry" />
        </mxCell>
        <mxCell id="vIZXdiSz9gOYUMvFdaI3-31" value="invite : date d&#39;invite" style="rounded=0;whiteSpace=wrap;html=1;" vertex="1" parent="1">
          <mxGeometry x="560" y="570" width="120" height="20" as="geometry" />
        </mxCell>
        <mxCell id="vIZXdiSz9gOYUMvFdaI3-32" value="multiselect : enclosed" style="rounded=0;whiteSpace=wrap;html=1;" vertex="1" parent="1">
          <mxGeometry x="380" y="360" width="200" height="60" as="geometry" />
        </mxCell>
      </root>
    </mxGraphModel>
  </diagram>
</mxfile>
